<?xml version="1.0" encoding="utf-8"?>
<!-- Svg Vector Icons : http://www.onlinewebfonts.com/icon -->
<!DOCTYPE svg PUBLIC "-//W3C//DTD SVG 1.1//EN" "http://www.w3.org/Graphics/SVG/1.1/DTD/svg11.dtd">
<svg version="1.1" xmlns="http://www.w3.org/2000/svg" xmlns:xlink="http://www.w3.org/1999/xlink" x="0px" y="0px" viewBox="0 0 256 256" enable-background="new 0 0 256 256" xml:space="preserve">
<metadata> Svg Vector Icons : http://www.onlinewebfonts.com/icon </metadata>
<g><g><path fill="#000000" d="M128,10C62.8,10,10,62.8,10,128c0,65.2,52.8,118,118,118c65.2,0,118-52.8,118-118C246,62.8,193.2,10,128,10z M206.2,192.7c-10.1-4.2-34.1-12.5-48.9-16.9c-1.3-0.4-1.5-0.5-1.5-5.7c0-4.3,1.8-8.7,3.5-12.4c1.9-4,4.1-10.8,4.9-16.9c2.3-2.6,5.3-7.8,7.3-17.6c1.7-8.6,0.9-11.8-0.2-14.7c-0.1-0.3-0.2-0.6-0.3-0.9c-0.4-2,0.1-12.5,1.6-20.7c1-5.6-0.2-17.5-8-27.4c-4.9-6.2-14.2-13.9-31.2-15h-9.3c-16.7,1.1-26.1,8.7-30.9,14.9c-7.7,9.9-9,21.8-8,27.4c1.5,8.2,2.1,18.7,1.7,20.7c-0.1,0.3-0.2,0.6-0.3,1c-1.1,3-2,6.1-0.2,14.7c2,9.8,5,15,7.3,17.6c0.8,6.1,3,12.8,4.9,16.9c1.4,2.9,2,6.9,2,12.6c0,5.3-0.2,5.3-1.4,5.7c-15.3,4.5-39.7,13.3-48.8,17.3c-15-17.7-24-40.6-24-65.5C26.3,71.7,71.9,26.1,128,26.1c56.1,0,101.7,45.6,101.7,101.7C229.7,152.4,220.9,175.1,206.2,192.7z"/></g></g>
</svg>